<?xml version="1.0" encoding="UTF-8"?>
<svg width="38px" height="38px" viewBox="0 0 38 38" version="1.1" xmlns="http://www.w3.org/2000/svg" xmlns:xlink="http://www.w3.org/1999/xlink"><g stroke="none" stroke-width="1" fill="none" fill-rule="evenodd"><path d="M37.5859375,34.9375 L34.9375,37.5859375 L25.0703125,27.71875 C22.3984375,29.8046875 19.1171875,30.953125 15.6484375,30.953125 C11.5703125,30.953125 7.7265625,29.359375 4.8203125,26.4765625 C1.9375,23.59375 0.34375,19.75 0.34375,15.6484375 C0.34375,11.546875 1.9375,7.703125 4.8203125,4.8203125 C7.7265625,1.9375 11.5703125,0.34375 15.6484375,0.34375 C19.75,0.34375 23.59375,1.9375 26.4765625,4.8203125 C29.3828125,7.703125 30.9765625,11.546875 30.9765625,15.6484375 C30.9765625,19.1171875 29.8046875,22.3984375 27.71875,25.0703125 L37.5859375,34.9375 Z M7.4453125,23.828125 C9.6484375,26.03125 12.5546875,27.2265625 15.6484375,27.2265625 C18.7421875,27.2265625 21.6484375,26.03125 23.8515625,23.828125 C26.03125,21.6484375 27.2265625,18.7421875 27.2265625,15.6484375 C27.2265625,12.5546875 26.03125,9.6484375 23.8515625,7.4453125 C21.6484375,5.265625 18.7421875,4.0703125 15.6484375,4.0703125 C12.5546875,4.0703125 9.6484375,5.265625 7.46875,7.4453125 C5.265625,9.6484375 4.0703125,12.5546875 4.0703125,15.6484375 C4.0703125,18.7421875 5.265625,21.6484375 7.4453125,23.828125 Z" fill="#AEB0B5"></path></g></svg>